# xmcd
#
# Track frame offsets:
#	150
#	23026
#	42117
#	59906
#	81797
#	98987
#	124113
#	143839
#	161787
#	181002
#	196809
#	212600
#	227638
#	247479
#	263155
#
# Disc length: 3718 seconds
#
# Revision: 1
# Processed by: cddbd v1.5.2PL0 Copyright (c) Steve Scherf et al.
# Submitted via: audiograbber 1.83.01
#
DISCID=d40e840f
DTITLE=Reba McEntire - 90054R
DYEAR=1900
DGENRE=Country
TTITLE0=Fancy
TTITLE1=Read My Mind
TTITLE2=It's Not Over
TTITLE3=Fallin' Out Of Love
TTITLE4=For My Broken Heart
TTITLE5=The Christmas Guest
TTITLE6=The Night The Lights Went Out In Georgia
TTITLE7=Let The Music Lift You Up
TTITLE8=For Herself
TTITLE9=Take It Back
TTITLE10=The Feart Won't Lie
TTITLE11=It's Your Call
TTITLE12=Does He Love You  (Duet)
TTITLE13=They Asked About You
TTITLE14=Why Haven't I Heard About You
EXTD=
EXTT0=
EXTT1=
EXTT2=
EXTT3=
EXTT4=
EXTT5=
EXTT6=
EXTT7=
EXTT8=
EXTT9=
EXTT10=
EXTT11=
EXTT12=
EXTT13=
EXTT14=
PLAYORDER=
